<svg data-v-423bf9ae="" xmlns="http://www.w3.org/2000/svg" viewBox="0 0 416 90" class="iconLeft"><!----><!----><!----><g data-v-423bf9ae="" id="82e5d1f2-a211-4325-a5b6-98b4e3c5c1b7" fill="black" transform="matrix(4.633204701445071,0,0,4.633204701445071,144.49187065924815,-1.8648672682326293)"><path d="M4.24 13.92L4.24 13.92L4.24 13.92Q3.53 13.92 2.85 13.57L2.85 13.57L2.85 13.57Q2.17 13.23 1.69 12.67L1.69 12.67L2.38 12.07L2.38 12.07Q3.23 13.05 4.33 13.05L4.33 13.05L4.33 13.05Q4.97 13.05 5.39 12.78L5.39 12.78L5.39 12.78Q5.81 12.50 5.81 12.01L5.81 12.01L5.81 12.01Q5.81 11.70 5.66 11.46L5.66 11.46L5.66 11.46Q5.52 11.21 5.20 11.01L5.20 11.01L5.20 11.01Q4.89 10.81 4.64 10.70L4.64 10.70L4.64 10.70Q4.40 10.58 3.95 10.42L3.95 10.42L3.95 10.42Q3.42 10.21 3.09 10.04L3.09 10.04L3.09 10.04Q2.76 9.87 2.41 9.62L2.41 9.62L2.41 9.62Q2.06 9.37 1.89 9.02L1.89 9.02L1.89 9.02Q1.72 8.68 1.72 8.25L1.72 8.25L1.72 8.25Q1.72 7.43 2.39 6.93L2.39 6.93L2.39 6.93Q3.07 6.43 4.12 6.43L4.12 6.43L4.12 6.43Q5.59 6.43 6.52 7.52L6.52 7.52L5.88 8.06L5.88 8.06Q5.08 7.29 4.09 7.29L4.09 7.29L4.09 7.29Q3.43 7.29 3.04 7.55L3.04 7.55L3.04 7.55Q2.65 7.80 2.65 8.23L2.65 8.23L2.65 8.23Q2.65 8.44 2.75 8.62L2.75 8.62L2.75 8.62Q2.86 8.81 2.98 8.93L2.98 8.93L2.98 8.93Q3.11 9.04 3.39 9.19L3.39 9.19L3.39 9.19Q3.67 9.34 3.84 9.40L3.84 9.40L3.84 9.40Q4.00 9.46 4.37 9.60L4.37 9.60L4.37 9.60Q4.93 9.81 5.23 9.96L5.23 9.96L5.23 9.96Q5.53 10.11 5.94 10.39L5.94 10.39L5.94 10.39Q6.36 10.67 6.54 11.05L6.54 11.05L6.54 11.05Q6.73 11.44 6.73 11.96L6.73 11.96L6.73 11.96Q6.73 12.85 6.06 13.38L6.06 13.38L6.06 13.38Q5.39 13.92 4.24 13.92ZM15.34 12.92L15.34 12.92L15.34 12.92Q14.43 13.92 12.94 13.92L12.94 13.92L12.94 13.92Q11.44 13.92 10.54 12.93L10.54 12.93L10.54 12.93Q9.63 11.94 9.63 10.18L9.63 10.18L9.63 10.18Q9.63 8.43 10.54 7.43L10.54 7.43L10.54 7.43Q11.44 6.43 12.94 6.43L12.94 6.43L12.94 6.43Q14.43 6.43 15.34 7.41L15.34 7.41L15.34 7.41Q16.24 8.40 16.24 10.16L16.24 10.16L16.24 10.16Q16.24 11.91 15.34 12.92ZM12.94 13.03L12.94 13.03L12.94 13.03Q14.01 13.03 14.62 12.27L14.62 12.27L14.62 12.27Q15.22 11.51 15.22 10.16L15.22 10.16L15.22 10.16Q15.22 8.81 14.63 8.06L14.63 8.06L14.63 8.06Q14.04 7.31 12.94 7.31L12.94 7.31L12.94 7.31Q11.82 7.31 11.24 8.04L11.24 8.04L11.24 8.04Q10.65 8.78 10.65 10.18L10.65 10.18L10.65 10.18Q10.65 11.54 11.24 12.29L11.24 12.29L11.24 12.29Q11.83 13.03 12.94 13.03ZM19.77 16.10L18.79 16.59L18.79 6.59L19.77 6.59L19.77 7.24L19.77 7.24Q20.19 6.85 20.64 6.64L20.64 6.64L20.64 6.64Q21.08 6.43 21.77 6.43L21.77 6.43L21.77 6.43Q23.21 6.43 24.05 7.44L24.05 7.44L24.05 7.44Q24.88 8.46 24.88 10.16L24.88 10.16L24.88 10.16Q24.88 11.93 24.03 12.92L24.03 12.92L24.03 12.92Q23.18 13.92 21.83 13.92L21.83 13.92L21.83 13.92Q20.54 13.92 19.77 13.02L19.77 13.02L19.77 16.10ZM21.71 13.03L21.71 13.03L21.71 13.03Q22.74 13.03 23.30 12.29L23.30 12.29L23.30 12.29Q23.86 11.55 23.86 10.16L23.86 10.16L23.86 10.16Q23.86 8.85 23.28 8.08L23.28 8.08L23.28 8.08Q22.69 7.31 21.66 7.31L21.66 7.31L21.66 7.31Q20.38 7.31 19.77 8.41L19.77 8.41L19.77 11.93L19.77 11.93Q20.62 13.03 21.71 13.03ZM30.81 13.68L30.81 13.68L30.81 13.68Q30.55 13.94 30.18 13.94L30.18 13.94L30.18 13.94Q29.82 13.94 29.56 13.68L29.56 13.68L29.56 13.68Q29.30 13.41 29.30 13.06L29.30 13.06L29.30 13.06Q29.30 12.71 29.56 12.45L29.56 12.45L29.56 12.45Q29.82 12.18 30.18 12.18L30.18 12.18L30.18 12.18Q30.55 12.18 30.81 12.45L30.81 12.45L30.81 12.45Q31.07 12.71 31.07 13.06L31.07 13.06L31.07 13.06Q31.07 13.41 30.81 13.68ZM37.60 13.75L36.68 13.75L34.92 6.59L35.92 6.59L37.09 11.72L37.09 11.72Q37.16 12.11 37.18 12.25L37.18 12.25L37.18 12.25Q37.20 12.19 37.23 11.99L37.23 11.99L37.23 11.99Q37.27 11.79 37.30 11.68L37.30 11.68L38.40 6.59L39.21 6.59L40.33 11.69L40.33 11.69Q40.36 11.82 40.46 12.32L40.46 12.32L40.46 12.32Q40.49 12.07 40.57 11.69L40.57 11.69L41.69 6.59L42.70 6.59L40.94 13.75L40.03 13.75L38.92 8.88L38.92 8.88Q38.86 8.68 38.79 8.25L38.79 8.25L38.79 8.25Q38.72 8.71 38.68 8.85L38.68 8.85L37.60 13.75ZM48.08 13.92L48.08 13.92L48.08 13.92Q46.38 13.92 46.38 12.21L46.38 12.21L46.38 7.48L44.69 7.48L44.69 6.59L46.38 6.59L46.38 4.13L47.36 3.64L47.36 6.59L49.76 6.59L49.76 7.48L47.36 7.48L47.36 11.79L47.36 11.79Q47.36 12.39 47.57 12.69L47.57 12.69L47.57 12.69Q47.77 12.99 48.41 12.99L48.41 12.99L48.41 12.99Q49.15 12.99 49.77 12.57L49.77 12.57L49.66 13.59L49.66 13.59Q49.06 13.92 48.08 13.92ZM57.18 4.69L57.18 4.69L57.18 4.69Q56.81 4.69 56.60 4.76L56.60 4.76L56.60 4.76Q56.38 4.83 56.29 4.99L56.29 4.99L56.29 4.99Q56.20 5.15 56.18 5.29L56.18 5.29L56.18 5.29Q56.15 5.42 56.15 5.67L56.15 5.67L56.15 6.59L58.06 6.59L58.06 7.48L56.15 7.48L56.15 12.87L58.06 12.87L58.06 13.75L53.69 13.75L53.69 12.87L55.17 12.87L55.17 7.48L53.69 7.48L53.69 6.59L55.17 6.59L55.17 5.52L55.17 5.52Q55.17 4.59 55.70 4.19L55.70 4.19L55.70 4.19Q56.22 3.78 57.08 3.78L57.08 3.78L57.08 3.78Q57.82 3.78 58.58 4.12L58.58 4.12L58.58 5.00L58.58 5.00Q57.93 4.69 57.18 4.69Z"></path></g><!----><g data-v-423bf9ae="" id="62c7ef45-a183-45fe-ae54-0717e1cc9b4a" transform="matrix(1.4702277900381788,0,0,1.4702277900381788,-6.512129820467763,-28.118656500808427)" stroke="none" fill="black"><path d="M76.31 35.389H47.45c-9.202 0-16.853 6.692-18.39 15.46h10.653c1.267-3.025 4.257-5.156 7.737-5.156h28.86c4.625 0 8.389 3.76 8.389 8.385v7.838c0 4.625-3.764 8.387-8.389 8.387H47.45c-.062 0-.12-.017-.182-.018H30.764c3.077 6.111 9.392 10.322 16.687 10.322h28.86c10.306 0 18.69-8.385 18.69-18.691v-7.838C95 43.774 86.616 35.389 76.31 35.389z"></path><path d="M29.527 64.611l.001.004H40.97l-.004-.004H52.55c9.234 0 16.904-6.739 18.404-15.553H60.315c-1.246 3.072-4.252 5.249-7.766 5.249h-9.538v.004h-19.18v-.004h-.141a8.304 8.304 0 0 1-1.917-.242c-3.7-.872-6.471-4.183-6.471-8.146v-7.838c0-4.625 3.764-8.385 8.389-8.385h28.86c.059 0 .114.016.173.017h16.514c-3.077-6.11-9.392-10.321-16.687-10.321H23.69C13.384 19.394 5 27.779 5 38.082v7.838c0 9.778 7.55 17.812 17.124 18.612.518.043 1.037.079 1.566.079h5.837z"></path></g><!----></svg>