<svg data-v-423bf9ae="" xmlns="http://www.w3.org/2000/svg" viewBox="0 0 146.62334602406747 60" class="font"><!----><!----><!----><g data-v-423bf9ae="" id="c665296c-fc81-4843-a736-8fd45cde5584" fill="black" transform="matrix(5.469960867096801,0,0,5.469960867096801,-0.9972172401402162,-3.391375644473534)"><path d="M2.09 1.62L2.09 1.62L2.09 1.62Q2.30 1.39 2.72 1.15L2.72 1.15L2.72 1.15Q3.14 0.91 3.62 0.76L3.62 0.76L3.62 0.76Q4.10 0.62 4.58 0.62L4.58 0.62L4.58 0.62Q5.05 0.62 5.39 0.85L5.39 0.85L5.47 0.77L5.47 0.77Q6.27 1.04 6.82 1.49L6.82 1.49L6.82 1.49Q7.36 1.95 7.63 2.79L7.63 2.79L7.63 2.79Q7.70 3.01 7.69 3.23L7.69 3.23L7.69 3.23Q7.67 3.46 7.74 3.68L7.74 3.68L7.74 3.68Q7.84 4.09 7.97 4.63L7.97 4.63L7.97 4.63Q8.11 5.18 8.04 5.85L8.04 5.85L8.04 5.85Q7.94 6.72 7.48 7.56L7.48 7.56L7.48 7.56Q7.01 8.40 6.31 9.02L6.31 9.02L6.31 9.02Q5.61 9.65 4.73 9.97L4.73 9.97L4.73 9.97Q3.85 10.30 2.93 10.14L2.93 10.14L2.93 10.14Q2.42 10.05 2.02 9.80L2.02 9.80L2.02 9.80Q1.61 9.55 1.30 9.19L1.30 9.19L1.30 9.19Q0.99 8.83 0.78 8.39L0.78 8.39L0.78 8.39Q0.56 7.95 0.43 7.48L0.43 7.48L0.43 7.48Q0.28 6.93 0.22 6.31L0.22 6.31L0.22 6.31Q0.15 5.70 0.21 5.08L0.21 5.08L0.21 5.08Q0.27 4.45 0.46 3.87L0.46 3.87L0.46 3.87Q0.66 3.29 1.01 2.83L1.01 2.83L1.01 2.83Q1.25 2.51 1.53 2.22L1.53 2.22L1.53 2.22Q1.81 1.93 2.09 1.62ZM5.15 2.41L5.15 2.41L5.15 2.41Q5.08 2.34 4.98 2.30L4.98 2.30L4.98 2.30Q4.89 2.25 4.79 2.21L4.79 2.21L4.70 2.30L4.70 2.30Q4.45 2.06 4.02 2.14L4.02 2.14L4.02 2.14Q3.58 2.23 3.14 2.44L3.14 2.44L3.02 2.62L3.02 2.62Q2.74 2.74 2.59 2.93L2.59 2.93L2.59 2.93Q2.44 3.11 2.36 3.33L2.36 3.33L2.36 3.33Q2.28 3.56 2.25 3.82L2.25 3.82L2.25 3.82Q2.23 4.09 2.21 4.38L2.21 4.38L2.21 4.38Q2.18 4.82 2.21 5.33L2.21 5.33L2.21 5.33Q2.23 5.85 2.33 6.37L2.33 6.37L2.33 6.37Q2.44 6.89 2.65 7.34L2.65 7.34L2.65 7.34Q2.86 7.80 3.21 8.12L3.21 8.12L3.21 8.12Q3.32 8.23 3.44 8.30L3.44 8.30L3.44 8.30Q3.57 8.37 3.70 8.44L3.70 8.44L3.70 8.44Q4.02 8.44 4.38 8.38L4.38 8.38L4.38 8.38Q4.75 8.32 5.08 8.20L5.08 8.20L5.08 8.20Q5.42 8.08 5.68 7.92L5.68 7.92L5.68 7.92Q5.94 7.77 6.05 7.57L6.05 7.57L6.05 7.57Q6.34 7.04 6.39 6.33L6.39 6.33L6.39 6.33Q6.44 5.61 6.31 4.89L6.31 4.89L6.31 4.89Q6.17 4.16 5.87 3.49L5.87 3.49L5.87 3.49Q5.57 2.83 5.15 2.41ZM3.91 9.23L3.91 9.23L3.91 9.23Q4.54 9.31 5.08 9.16L5.08 9.16L5.08 9.16Q5.61 9.00 6.03 8.67L6.03 8.67L6.03 8.67Q6.45 8.33 6.73 7.83L6.73 7.83L6.73 7.83Q7 7.34 7.08 6.73L7.08 6.73L7.08 6.73Q6.96 7.06 6.78 7.35L6.78 7.35L6.78 7.35Q6.66 7.50 6.50 7.67L6.50 7.67L6.50 7.67Q6.34 7.84 6.17 8.00L6.17 8.00L6.17 8.00Q6.01 8.16 5.86 8.29L5.86 8.29L5.86 8.29Q5.71 8.43 5.61 8.53L5.61 8.53L5.61 8.53Q5.45 8.68 4.97 8.88L4.97 8.88L4.97 8.88Q4.49 9.09 3.91 9.23ZM1.69 2.63L1.69 2.63L1.69 2.63Q1.50 2.98 1.36 3.44L1.36 3.44L1.36 3.44Q1.78 2.77 2.38 2.30L2.38 2.30L2.38 2.30Q2.58 2.14 2.94 1.92L2.94 1.92L2.94 1.92Q3.30 1.71 3.75 1.53L3.75 1.53L3.75 1.53Q3.46 1.53 3.14 1.63L3.14 1.63L3.14 1.63Q2.81 1.74 2.53 1.90L2.53 1.90L2.53 1.90Q2.24 2.06 2.02 2.25L2.02 2.25L2.02 2.25Q1.81 2.44 1.69 2.63ZM16.91 3.26L16.84 3.35L16.84 3.35Q16.93 3.32 16.95 3.43L16.95 3.43L16.95 3.43Q16.95 3.46 16.96 3.48L16.96 3.48L16.96 3.48Q16.97 3.50 16.97 3.53L16.97 3.53L16.97 3.53Q17.08 3.50 17.18 3.49L17.18 3.49L17.18 3.49Q17.29 3.47 17.40 3.44L17.40 3.44L17.40 3.44Q18.06 3.15 18.83 2.97L18.83 2.97L18.83 2.97Q18.65 3.21 18.47 3.43L18.47 3.43L18.47 3.43Q18.30 3.65 18.13 3.88L18.13 3.88L17.84 3.96L17.84 3.96Q17.72 4.06 17.64 4.12L17.64 4.12L17.64 4.12Q17.56 4.19 17.53 4.21L17.53 4.21L17.53 4.21Q17.40 4.28 17.22 4.35L17.22 4.35L17.22 4.35Q17.26 4.55 17.21 4.77L17.21 4.77L17.21 4.77Q17.15 4.98 17.09 5.18L17.09 5.18L16.90 5.32L16.90 5.32Q16.87 5.40 16.87 5.49L16.87 5.49L16.87 5.49Q16.87 5.57 16.86 5.66L16.86 5.66L16.86 5.66Q16.86 5.73 16.84 5.86L16.84 5.86L16.84 5.86Q16.83 5.99 16.81 6.14L16.81 6.14L16.81 6.14Q16.80 6.29 16.79 6.42L16.79 6.42L16.79 6.42Q16.79 6.55 16.79 6.62L16.79 6.62L16.79 6.62Q16.74 7.25 16.73 7.85L16.73 7.85L16.73 7.85Q16.72 8.46 16.69 9.07L16.69 9.07L16.69 9.07Q16.67 9.42 16.66 9.77L16.66 9.77L16.66 9.77Q16.65 10.12 16.57 10.44L16.57 10.44L16.57 10.44Q16.49 10.77 16.32 11.05L16.32 11.05L16.32 11.05Q16.14 11.33 15.81 11.52L15.81 11.52L15.81 11.52Q15.74 11.55 15.67 11.58L15.67 11.58L15.67 11.58Q15.61 11.61 15.55 11.54L15.55 11.54L15.55 11.54Q15.47 11.38 15.45 11.15L15.45 11.15L15.45 11.15Q15.43 10.92 15.43 10.68L15.43 10.68L15.43 10.68Q15.44 10.43 15.46 10.20L15.46 10.20L15.46 10.20Q15.48 9.97 15.48 9.80L15.48 9.80L15.48 9.80Q15.50 9.52 15.51 9.23L15.51 9.23L15.51 9.23Q15.53 8.93 15.55 8.65L15.55 8.65L15.55 8.65Q15.20 8.93 14.87 9.14L14.87 9.14L14.87 9.14Q14.53 9.35 14.29 9.45L14.29 9.45L14.29 9.45Q13.96 9.59 13.62 9.74L13.62 9.74L13.62 9.74Q13.29 9.88 12.94 9.99L12.94 9.99L12.94 9.99Q12.60 10.09 12.25 10.13L12.25 10.13L12.25 10.13Q11.90 10.16 11.52 10.11L11.52 10.11L11.52 10.11Q11.27 10.07 11.04 9.93L11.04 9.93L11.04 9.93Q10.81 9.80 10.57 9.72L10.57 9.72L10.57 9.72Q10.09 9.56 9.77 9.44L9.77 9.44L9.77 9.44Q9.45 9.31 9.23 9.11L9.23 9.11L9.23 9.11Q9.00 8.92 8.85 8.61L8.85 8.61L8.85 8.61Q8.71 8.30 8.57 7.78L8.57 7.78L8.57 7.78Q8.32 6.83 8.43 5.92L8.43 5.92L8.43 5.92Q8.55 5.00 8.95 4.17L8.95 4.17L8.95 4.17Q9.35 3.35 9.97 2.63L9.97 2.63L9.97 2.63Q10.60 1.92 11.35 1.37L11.35 1.37L11.35 1.37Q11.87 1.01 12.52 0.80L12.52 0.80L12.52 0.80Q13.17 0.60 13.82 0.64L13.82 0.64L13.82 0.64Q14.04 0.66 14.21 0.69L14.21 0.69L14.21 0.69Q14.38 0.71 14.59 0.76L14.59 0.76L14.59 0.76Q14.70 0.78 14.76 0.77L14.76 0.77L14.76 0.77Q14.83 0.76 14.98 0.70L14.98 0.70L14.98 0.70Q14.95 0.90 14.85 1.04L14.85 1.04L14.85 1.04Q14.74 1.19 14.62 1.33L14.62 1.33L14.62 1.33Q14.38 1.57 14.18 1.63L14.18 1.63L14.18 1.63Q13.97 1.69 13.75 1.67L13.75 1.67L13.64 1.78L13.64 1.78Q13.37 1.71 13.03 1.83L13.03 1.83L13.03 1.83Q12.70 1.96 12.35 2.18L12.35 2.18L12.26 2.34L12.26 2.34Q12.18 2.38 12.09 2.41L12.09 2.41L12.09 2.41Q12.00 2.45 11.93 2.48L11.93 2.48L11.93 2.48Q11.83 2.55 11.75 2.63L11.75 2.63L11.75 2.63Q11.66 2.72 11.58 2.79L11.58 2.79L11.58 2.79Q11.48 2.93 11.41 3.12L11.41 3.12L11.41 3.12Q11.34 3.30 11.30 3.48L11.30 3.48L11.30 3.48Q11.26 3.65 11.23 3.81L11.23 3.81L11.23 3.81Q11.20 3.96 11.20 4.03L11.20 4.03L11.20 4.03Q11.13 4.59 11.15 5.22L11.15 5.22L11.15 5.22Q11.17 5.85 11.32 6.46L11.32 6.46L11.32 6.46Q11.47 7.07 11.75 7.62L11.75 7.62L11.75 7.62Q12.03 8.18 12.47 8.57L12.47 8.57L12.47 8.57Q12.56 8.57 12.64 8.57L12.64 8.57L12.64 8.57Q12.73 8.57 12.81 8.58L12.81 8.58L12.68 8.74L12.68 8.74Q12.88 8.86 13.11 8.94L13.11 8.94L13.11 8.94Q13.34 9.02 13.55 9.11L13.55 9.11L13.55 9.11Q14 9.00 14.42 8.80L14.42 8.80L14.42 8.80Q14.84 8.60 15.25 8.41L15.25 8.41L15.25 8.41Q15.34 8.34 15.43 8.26L15.43 8.26L15.43 8.26Q15.53 8.18 15.61 8.06L15.61 8.06L15.60 8.08L15.60 8.08Q15.55 8.12 15.61 8.01L15.61 8.01L15.61 8.01Q15.68 7.43 15.76 6.88L15.76 6.88L15.76 6.88Q15.83 6.33 15.90 5.75L15.90 5.75L15.90 5.75Q15.93 5.54 15.97 5.30L15.97 5.30L15.97 5.30Q16.00 5.05 16.03 4.80L16.03 4.80L16.03 4.80Q15.71 4.94 15.40 5.07L15.40 5.07L15.40 5.07Q15.09 5.19 14.78 5.35L14.78 5.35L14.78 5.35Q14.38 5.56 13.98 5.77L13.98 5.77L13.98 5.77Q13.58 5.98 13.16 6.16L13.16 6.16L13.16 6.16Q13.01 6.17 13.03 6.08L13.03 6.08L13.03 6.08Q13.05 5.98 13.13 5.85L13.13 5.85L13.13 5.85Q13.22 5.73 13.33 5.61L13.33 5.61L13.33 5.61Q13.44 5.49 13.47 5.46L13.47 5.46L13.64 5.33L13.64 5.33Q13.64 5.33 13.65 5.31L13.65 5.31L13.65 5.31Q13.68 5.29 13.68 5.29L13.68 5.29L13.68 5.29Q13.69 5.29 13.72 5.28L13.72 5.28L13.72 5.28Q13.73 5.26 13.73 5.26L13.73 5.26L13.73 5.26Q13.75 5.26 13.76 5.25L13.76 5.25L13.76 5.25Q13.66 5.25 13.59 5.21L13.59 5.21L13.59 5.21Q13.47 5.15 13.51 5.01L13.51 5.01L13.51 5.01Q13.55 4.87 13.66 4.72L13.66 4.72L13.66 4.72Q13.78 4.56 13.91 4.42L13.91 4.42L13.91 4.42Q14.04 4.28 14.11 4.23L14.11 4.23L14.11 4.23Q14.69 3.78 15.44 3.54L15.44 3.54L15.44 3.54Q16.20 3.30 16.91 3.26L16.91 3.26ZM10.21 3.49L10.65 3.18L10.92 2.91L10.92 2.91Q11.20 2.46 11.61 2.11L11.61 2.11L11.61 2.11Q11.76 1.99 11.95 1.89L11.95 1.89L11.95 1.89Q12.14 1.79 12.33 1.69L12.33 1.69L12.33 1.69Q12.38 1.67 12.49 1.58L12.49 1.58L12.49 1.58Q12.32 1.60 12.16 1.63L12.16 1.63L12.16 1.63Q12.00 1.67 11.83 1.72L11.83 1.72L11.83 1.72Q11.24 1.92 10.80 2.31L10.80 2.31L10.80 2.31Q10.36 2.70 10.04 3.21L10.04 3.21L10.04 3.21Q9.73 3.71 9.55 4.29L9.55 4.29L9.55 4.29Q9.37 4.87 9.32 5.46L9.32 5.46L9.32 5.46Q9.30 5.91 9.37 6.50L9.37 6.50L9.37 6.50Q9.45 7.10 9.70 7.62L9.70 7.62L9.70 7.62Q9.42 6.40 9.52 5.54L9.52 5.54L9.52 5.54Q9.62 4.68 10.08 3.93L10.08 3.93L10.08 3.93Q10.11 3.82 10.14 3.71L10.14 3.71L10.14 3.71Q10.18 3.60 10.21 3.49L10.21 3.49ZM26.15 0.81L25.35 1.74L25.35 1.74Q25.24 1.74 25.19 1.72L25.19 1.72L25.16 1.76L25.16 1.76Q25.06 1.78 24.97 1.79L24.97 1.79L24.97 1.79Q24.88 1.81 24.77 1.83L24.77 1.83L24.72 1.83L24.72 1.83Q24.35 1.90 23.90 2.03L23.90 2.03L23.90 2.03Q23.45 2.16 22.99 2.34L22.99 2.34L22.99 2.34Q22.44 2.70 21.90 3.21L21.90 3.21L21.90 3.21Q21.71 3.70 21.60 4.21L21.60 4.21L21.60 4.21Q21.49 4.72 21.57 5.21L21.57 5.21L21.57 5.21Q21.97 5.22 22.40 5.11L22.40 5.11L22.40 5.11Q22.83 5.00 23.27 4.87L23.27 4.87L23.27 4.87Q23.72 4.75 24.16 4.65L24.16 4.65L24.16 4.65Q24.60 4.55 24.99 4.59L24.99 4.59L24.99 4.59Q25.10 4.62 25.24 4.66L25.24 4.66L25.24 4.66Q25.38 4.69 25.52 4.72L25.52 4.72L25.52 4.72Q25.90 4.68 26.17 4.70L26.17 4.70L26.17 4.70Q26.43 4.72 26.60 4.87L26.60 4.87L26.60 4.87Q26.75 4.90 26.80 4.96L26.80 4.96L26.80 4.96Q26.96 5.24 26.98 5.50L26.98 5.50L26.98 5.50Q27.01 5.75 26.92 5.99L26.92 5.99L26.92 5.99Q26.92 6.34 26.77 6.69L26.77 6.69L26.77 6.69Q26.61 7.04 26.38 7.36L26.38 7.36L26.38 7.36Q26.19 7.70 25.92 8.02L25.92 8.02L25.92 8.02Q25.65 8.33 25.35 8.62L25.35 8.62L25.35 8.62Q25.06 8.90 24.77 9.16L24.77 9.16L24.77 9.16Q24.47 9.42 24.25 9.65L24.25 9.65L24.25 9.65Q23.80 10.14 23.43 10.38L23.43 10.38L23.43 10.38Q23.06 10.63 22.64 10.70L22.64 10.70L22.64 10.70Q22.26 10.85 21.87 10.93L21.87 10.93L21.87 10.93Q21.84 10.93 21.80 10.94L21.80 10.94L21.80 10.94Q21.77 10.95 21.74 10.95L21.74 10.95L21.74 10.95Q21.63 11.03 21.59 11.07L21.59 11.07L21.59 11.07Q21.59 11.05 21.60 11.03L21.60 11.03L21.60 11.03Q21.62 11.00 21.62 10.98L21.62 10.98L21.62 10.98Q21.34 11.02 21.11 11.02L21.11 11.02L21.11 11.02Q20.89 11.02 20.67 10.99L20.67 10.99L20.67 10.99Q20.45 10.96 20.23 10.89L20.23 10.89L20.23 10.89Q20.01 10.82 19.71 10.74L19.71 10.74L19.71 10.74Q19.56 10.68 19.41 10.63L19.41 10.63L19.41 10.63Q19.26 10.57 19.17 10.43L19.17 10.43L19.17 10.43Q19.28 10.32 19.39 10.22L19.39 10.22L19.39 10.22Q19.50 10.12 19.61 10.01L19.61 10.01L19.61 10.01Q19.57 9.88 19.49 9.76L19.49 9.76L19.49 9.76Q19.50 9.63 19.59 9.48L19.59 9.48L19.59 9.48Q19.68 9.32 19.82 9.18L19.82 9.18L19.82 9.18Q19.95 9.04 20.10 8.95L20.10 8.95L20.10 8.95Q20.26 8.86 20.40 8.89L20.40 8.89L20.41 8.88L20.41 8.88Q20.41 8.90 20.44 8.93L20.44 8.93L20.44 8.93Q20.52 9.04 20.61 9.04L20.61 9.04L20.51 9.16L20.51 9.16Q20.52 9.24 20.58 9.31L20.58 9.31L20.58 9.31Q20.64 9.42 20.80 9.52L20.80 9.52L20.83 9.49L20.83 9.49Q21.38 9.60 21.85 9.62L21.85 9.62L21.85 9.62Q22.32 9.63 22.76 9.56L22.76 9.56L22.76 9.56Q22.99 9.35 23.20 9.13L23.20 9.13L23.20 9.13Q23.41 8.92 23.65 8.69L23.65 8.69L23.66 8.68L23.66 8.68Q23.69 8.65 23.72 8.62L23.72 8.62L23.72 8.62Q23.76 8.58 23.80 8.55L23.80 8.55L23.87 8.48L23.87 8.48Q23.98 8.37 24.10 8.26L24.10 8.26L24.10 8.26Q24.22 8.15 24.35 8.04L24.35 8.04L24.35 8.04Q24.39 7.99 24.44 7.96L24.44 7.96L24.44 7.96Q24.49 7.92 24.53 7.88L24.53 7.88L24.53 7.88Q24.65 7.42 24.65 6.96L24.65 6.96L24.65 6.96Q24.64 6.50 24.46 5.94L24.46 5.94L24.42 5.94L24.39 5.96L24.39 5.95L24.39 5.95Q23.88 6.05 23.39 6.20L23.39 6.20L23.39 6.20Q22.90 6.36 22.41 6.49L22.41 6.49L22.41 6.49Q21.91 6.62 21.42 6.69L21.42 6.69L21.42 6.69Q20.93 6.76 20.44 6.68L20.44 6.68L20.44 6.68Q20.29 6.65 20.15 6.58L20.15 6.58L20.15 6.58Q20.01 6.51 19.87 6.44L19.87 6.44L19.87 6.44Q19.70 6.37 19.63 6.21L19.63 6.21L19.63 6.21Q19.57 6.05 19.60 5.85L19.60 5.85L19.60 5.85Q19.54 5.67 19.58 5.46L19.58 5.46L19.58 5.46Q19.61 5.25 19.70 5.01L19.70 5.01L19.70 5.01Q19.71 4.80 19.73 4.59L19.73 4.59L19.73 4.59Q19.75 4.38 19.79 4.19L19.79 4.19L19.79 4.19Q19.82 4.00 19.85 3.87L19.85 3.87L19.85 3.87Q19.88 3.74 19.89 3.68L19.89 3.68L19.89 3.68Q19.91 3.64 19.95 3.56L19.95 3.56L19.95 3.56Q19.99 3.47 20.04 3.39L20.04 3.39L20.04 3.39Q20.09 3.30 20.13 3.24L20.13 3.24L20.13 3.24Q20.17 3.18 20.17 3.18L20.17 3.18L20.17 3.18Q20.38 2.83 20.69 2.55L20.69 2.55L20.69 2.55Q21.00 2.28 21.34 2.06L21.34 2.06L21.34 2.06Q21.69 1.85 22.06 1.66L22.06 1.66L22.06 1.66Q22.43 1.47 22.78 1.29L22.78 1.29L22.78 1.29Q23.10 1.12 23.41 0.94L23.41 0.94L23.41 0.94Q23.72 0.76 24.09 0.71L24.09 0.71L24.09 0.71Q24.26 0.70 24.43 0.73L24.43 0.73L24.43 0.73Q24.60 0.76 24.77 0.80L24.77 0.80L24.77 0.80Q24.85 0.81 24.94 0.82L24.94 0.82L24.94 0.82Q25.03 0.83 25.13 0.84L25.13 0.84L25.13 0.84Q25.37 0.80 25.63 0.79L25.63 0.79L25.63 0.79Q25.89 0.78 26.15 0.81L26.15 0.81ZM23.51 9.34L24.14 8.97L24.14 8.97Q24.18 8.88 24.21 8.79L24.21 8.79L24.21 8.79Q24.25 8.69 24.29 8.60L24.29 8.60L24.29 8.60Q24.08 8.78 23.89 8.97L23.89 8.97L23.89 8.97Q23.70 9.16 23.51 9.34L23.51 9.34ZM25.62 6.38L25.62 6.38L25.62 6.38Q25.59 6.36 25.58 6.32L25.58 6.32L25.58 6.32Q25.58 6.29 25.55 6.26L25.55 6.26L25.55 6.26Q25.54 6.71 25.42 7.17L25.42 7.17L25.42 7.17Q25.51 7.10 25.58 7.03L25.58 7.03L25.58 7.03Q25.66 6.96 25.75 6.89L25.75 6.89L25.75 6.89Q25.73 6.65 25.62 6.38ZM20.73 3.36L20.73 3.36L20.73 3.36Q21.03 3.00 21.42 2.67L21.42 2.67L21.42 2.67Q21.45 2.63 21.47 2.59L21.47 2.59L21.47 2.59Q21.49 2.55 21.52 2.51L21.52 2.51L21.52 2.51Q21.32 2.62 21.17 2.72L21.17 2.72L21.17 2.72Q21.01 2.83 20.92 2.90L20.92 2.90L20.92 2.90Q20.82 3.00 20.73 3.36ZM20.61 4.69L20.61 4.69L20.61 4.69Q20.64 4.83 20.69 4.90L20.69 4.90L20.82 4.31L20.82 4.31Q20.69 4.49 20.61 4.69Z"></path></g><!----><!----></svg>