<?xml version="1.0" encoding="UTF-8"?>
<svg xmlns="http://www.w3.org/2000/svg" xmlns:xlink="http://www.w3.org/1999/xlink" width="103px" height="42px" viewBox="0 0 102 42" version="1.1">
<g id="surface1">
<path style=" stroke:none;fill-rule:nonzero;fill:rgb(0%,0%,0%);fill-opacity:1;" d="M 10.925781 36.417969 C 9.304688 36.199219 7.605469 35.542969 6.28125 34.628906 C 5.300781 33.953125 3.964844 32.5625 3.242188 31.472656 C 1.660156 29.074219 0.734375 26.460938 0.183594 22.828125 C 0.0273438 21.804688 0 21.253906 0 19.164062 C 0 17.007812 0.0195312 16.570312 0.183594 15.640625 C 0.804688 12.050781 1.792969 9.847656 3.925781 7.316406 C 5.304688 5.675781 7.621094 3.273438 8.257812 2.816406 C 9.613281 1.847656 10.9375 1.171875 12.558594 0.625 C 13.945312 0.15625 14.890625 0.00390625 16.390625 0 C 17.78125 -0.00390625 18.0625 0.0507812 19.023438 0.515625 C 19.597656 0.789062 19.652344 0.800781 19.789062 0.675781 C 19.929688 0.550781 19.988281 0.558594 20.5625 0.765625 C 22.363281 1.414062 24.445312 2.671875 25.515625 3.761719 C 26.5625 4.828125 27.417969 6.273438 27.996094 7.964844 C 28.191406 8.535156 28.238281 8.855469 28.292969 9.9375 C 28.328125 10.644531 28.378906 11.257812 28.402344 11.296875 C 28.496094 11.449219 29.542969 15.988281 29.628906 16.601562 C 29.753906 17.53125 29.738281 19.257812 29.59375 20.285156 C 28.953125 24.8125 26.394531 29.242188 22.527344 32.507812 C 20.421875 34.289062 17.566406 35.71875 15.042969 36.253906 C 14.078125 36.460938 11.882812 36.550781 10.925781 36.417969 Z M 16.980469 32.9375 C 20.890625 32.453125 24.25 29.617188 25.546875 25.703125 C 25.792969 24.953125 26.132812 23.367188 26.0625 23.292969 C 26.035156 23.269531 25.953125 23.414062 25.875 23.621094 C 25.503906 24.601562 24.863281 25.667969 24.144531 26.488281 C 23.257812 27.503906 20.351562 30.261719 19.808594 30.605469 C 18.941406 31.15625 16.8125 32.027344 15.238281 32.480469 C 13.898438 32.867188 13.867188 32.882812 14.371094 32.949219 C 15.074219 33.042969 16.179688 33.035156 16.980469 32.9375 Z M 14.734375 29.804688 C 17.402344 29.511719 20.308594 28.449219 21.535156 27.320312 C 22.40625 26.515625 23.164062 24.511719 23.414062 22.347656 C 23.542969 21.222656 23.472656 18.121094 23.289062 16.957031 C 22.539062 12.167969 20.109375 7.28125 17.957031 6.234375 C 17.394531 5.960938 17.351562 5.949219 17.207031 6.085938 C 17.058594 6.21875 17.023438 6.210938 16.558594 5.960938 C 15.703125 5.492188 14.703125 5.523438 12.984375 6.074219 C 11.683594 6.492188 11.089844 6.792969 10.855469 7.152344 C 10.734375 7.339844 10.421875 7.601562 10.082031 7.800781 C 8.714844 8.609375 7.917969 10.066406 7.6875 12.183594 C 7.257812 16.167969 7.496094 20.402344 8.3125 23.261719 C 9.191406 26.324219 10.695312 28.558594 12.550781 29.546875 C 13.269531 29.929688 13.429688 29.945312 14.734375 29.804688 Z M 5.214844 9.539062 C 7.027344 7.070312 9.464844 5.195312 12.816406 3.6875 C 13.5625 3.351562 13.460938 3.28125 12.449219 3.425781 C 11.109375 3.621094 9.40625 4.3125 7.980469 5.246094 C 6.71875 6.074219 5.886719 6.941406 5.34375 8 C 5.003906 8.664062 4.460938 10.0625 4.371094 10.511719 L 4.316406 10.765625 L 4.46875 10.554688 C 4.550781 10.4375 4.886719 9.980469 5.214844 9.539062 Z M 5.214844 9.539062 "/>
<path style=" stroke:none;fill-rule:nonzero;fill:rgb(0%,0%,0%);fill-opacity:1;" d="M 59.851562 41.65625 C 59.761719 41.507812 59.640625 41.171875 59.582031 40.914062 C 59.390625 40.039062 59.460938 36.894531 59.777344 32.148438 C 59.828125 31.410156 59.847656 30.785156 59.820312 30.757812 C 59.792969 30.730469 59.476562 30.9375 59.113281 31.222656 C 58.222656 31.917969 56.773438 32.859375 55.902344 33.3125 C 55.507812 33.515625 54.386719 34.03125 53.414062 34.449219 C 49.957031 35.945312 48.398438 36.363281 46.230469 36.363281 C 45.511719 36.363281 44.699219 36.316406 44.421875 36.257812 C 44.144531 36.199219 43.332031 35.871094 42.613281 35.527344 C 41.898438 35.1875 40.628906 34.671875 39.796875 34.382812 C 37.140625 33.457031 36.4375 33.074219 35.4375 32.007812 C 34.796875 31.320312 34.308594 30.382812 33.839844 28.9375 C 32.953125 26.199219 32.589844 23.605469 32.769531 21.25 C 33.179688 15.878906 35.726562 10.648438 40.082031 6.242188 C 42.851562 3.4375 45.332031 1.75 47.996094 0.84375 C 49.445312 0.351562 50.382812 0.1875 51.988281 0.140625 C 53.4375 0.0976562 53.683594 0.121094 56.199219 0.546875 C 56.710938 0.632812 56.855469 0.625 57.195312 0.507812 L 57.59375 0.371094 L 57.535156 0.644531 C 57.441406 1.078125 57.214844 1.472656 56.621094 2.210938 C 56.011719 2.972656 55.238281 3.582031 54.609375 3.792969 C 54.386719 3.871094 53.917969 3.945312 53.574219 3.960938 C 53.078125 3.988281 52.910156 4.03125 52.757812 4.171875 C 52.589844 4.332031 52.5 4.347656 52.066406 4.304688 C 51.136719 4.210938 49.96875 4.589844 48.316406 5.519531 C 47.828125 5.792969 47.621094 5.96875 47.480469 6.21875 C 47.324219 6.5 47.199219 6.589844 46.632812 6.820312 C 46.09375 7.039062 45.839844 7.210938 45.292969 7.730469 C 44.375 8.601562 44.003906 9.363281 43.585938 11.257812 C 43.308594 12.496094 43.21875 13.234375 43.121094 15.082031 C 42.890625 19.359375 43.628906 23.277344 45.304688 26.660156 C 45.921875 27.914062 46.550781 28.839844 47.382812 29.71875 L 48.097656 30.480469 L 49.355469 30.480469 L 49.136719 30.738281 C 49.019531 30.882812 48.921875 31.03125 48.921875 31.066406 C 48.921875 31.183594 49.707031 31.566406 50.859375 32.007812 C 51.480469 32.25 52.050781 32.464844 52.128906 32.488281 C 52.515625 32.605469 54.421875 31.894531 57.027344 30.660156 C 58.597656 29.914062 58.851562 29.765625 59.394531 29.261719 C 59.992188 28.710938 60.003906 28.691406 60.097656 28.125 C 60.222656 27.382812 60.542969 24.957031 60.863281 22.335938 C 61.003906 21.191406 61.226562 19.476562 61.359375 18.519531 C 61.691406 16.15625 61.707031 15.972656 61.625 15.972656 C 61.585938 15.972656 60.757812 16.316406 59.78125 16.734375 C 57.914062 17.535156 56.890625 18.035156 54.46875 19.324219 C 52.75 20.238281 50.832031 21.148438 50.617188 21.148438 C 50.335938 21.148438 50.269531 20.988281 50.402344 20.613281 C 50.617188 19.992188 51.621094 18.808594 52.484375 18.160156 L 53.058594 17.726562 L 52.695312 17.617188 C 52.070312 17.429688 51.96875 17.089844 52.316406 16.355469 C 52.5625 15.835938 53.460938 14.703125 54.082031 14.132812 C 55.128906 13.167969 57.113281 12.039062 58.859375 11.414062 C 60.492188 10.828125 62.636719 10.355469 64.46875 10.171875 C 64.816406 10.136719 64.902344 10.148438 64.828125 10.226562 C 64.6875 10.363281 64.703125 10.433594 64.886719 10.480469 C 64.984375 10.507812 65.0625 10.632812 65.097656 10.832031 C 65.132812 11.003906 65.207031 11.140625 65.269531 11.140625 C 65.660156 11.140625 66.84375 10.832031 67.511719 10.558594 C 68.863281 10.003906 71.652344 9.101562 72.019531 9.101562 C 72.078125 9.101562 71.71875 9.628906 71.222656 10.273438 C 70.726562 10.917969 70.140625 11.683594 69.921875 11.972656 C 69.699219 12.261719 69.472656 12.496094 69.410156 12.496094 C 69.035156 12.496094 68.402344 12.800781 67.839844 13.257812 C 67.492188 13.539062 66.972656 13.867188 66.683594 13.992188 L 66.15625 14.21875 L 66.15625 14.90625 C 66.160156 15.425781 66.09375 15.8125 65.894531 16.507812 C 65.640625 17.378906 65.609375 17.4375 65.261719 17.691406 C 65.058594 17.835938 64.875 18.035156 64.859375 18.132812 C 64.683594 19.058594 64.449219 22.789062 64.308594 26.789062 C 64.117188 32.296875 63.964844 35.722656 63.878906 36.332031 C 63.703125 37.597656 63.382812 38.601562 62.800781 39.722656 C 62.503906 40.296875 61.417969 41.339844 60.78125 41.660156 C 60.488281 41.808594 60.195312 41.929688 60.132812 41.929688 C 60.070312 41.929688 59.941406 41.808594 59.851562 41.65625 Z M 37.449219 25.71875 C 37.035156 23.636719 36.945312 22.742188 36.945312 20.722656 C 36.941406 19.066406 36.96875 18.6875 37.136719 17.84375 C 37.460938 16.203125 38.089844 14.453125 38.769531 13.285156 C 38.933594 13.003906 39.1875 12.375 39.335938 11.890625 L 39.601562 11.007812 L 40.332031 10.5 C 41.285156 9.835938 42.105469 9.042969 42.65625 8.246094 C 43.839844 6.546875 44.929688 5.570312 46.707031 4.617188 C 47.816406 4.027344 48.3125 3.710938 48.238281 3.636719 C 48.175781 3.574219 46.820312 3.832031 46.046875 4.050781 C 45.019531 4.34375 43.425781 5.140625 42.53125 5.800781 C 41.058594 6.890625 39.453125 8.78125 38.460938 10.589844 C 37.445312 12.433594 36.597656 15.046875 36.273438 17.304688 C 35.964844 19.5 36.195312 22.664062 36.824219 24.820312 C 37.0625 25.632812 37.5625 26.867188 37.625 26.800781 C 37.644531 26.785156 37.566406 26.296875 37.449219 25.71875 Z M 37.449219 25.71875 "/>
<path style=" stroke:none;fill-rule:nonzero;fill:rgb(0%,0%,0%);fill-opacity:1;" d="M 77.933594 39.226562 C 76.851562 39.0625 74.101562 38.257812 73.191406 37.835938 C 72.871094 37.683594 72.53125 37.480469 72.445312 37.378906 C 72.285156 37.195312 72.285156 37.195312 73.054688 36.433594 C 73.582031 35.914062 73.824219 35.613281 73.824219 35.480469 C 73.820312 35.375 73.730469 35.09375 73.625 34.863281 L 73.425781 34.4375 L 73.769531 33.761719 C 74.355469 32.609375 75.8125 31.335938 76.53125 31.34375 C 76.636719 31.347656 76.863281 31.476562 77.035156 31.636719 C 77.324219 31.910156 77.335938 31.945312 77.246094 32.1875 C 77.125 32.515625 77.308594 32.894531 77.824219 33.375 C 78.121094 33.652344 78.253906 33.710938 78.667969 33.757812 C 78.941406 33.789062 79.578125 33.867188 80.085938 33.929688 C 81.601562 34.121094 83.027344 34.164062 84.457031 34.058594 L 85.796875 33.957031 L 88.070312 31.742188 C 90.761719 29.121094 91.4375 28.472656 92.105469 27.894531 L 92.601562 27.460938 L 92.757812 26.625 C 92.96875 25.492188 93.046875 23.480469 92.914062 22.628906 C 92.78125 21.785156 92.421875 20.226562 92.324219 20.0625 C 92.273438 19.984375 92.136719 19.949219 91.925781 19.960938 C 91.457031 19.992188 89.425781 20.507812 87.496094 21.089844 C 84.425781 22.015625 82.1875 22.554688 80.464844 22.777344 C 79.492188 22.902344 77.371094 22.820312 76.738281 22.632812 C 75.976562 22.40625 74.730469 21.738281 74.316406 21.332031 C 73.945312 20.972656 73.921875 20.921875 73.859375 20.359375 C 73.726562 19.078125 73.773438 18.035156 74.011719 17.132812 C 74.136719 16.664062 74.277344 15.84375 74.328125 15.308594 C 74.457031 13.894531 74.796875 12.019531 75.042969 11.351562 C 75.539062 10.015625 76.539062 8.589844 77.953125 7.207031 C 79.269531 5.917969 80.382812 5.179688 83.492188 3.523438 C 84.394531 3.042969 86.015625 2.171875 87.09375 1.589844 C 90.03125 0 90.621094 -0.140625 92.742188 0.246094 C 93.929688 0.464844 94.019531 0.46875 96.226562 0.414062 L 98.492188 0.355469 L 97.222656 1.832031 C 95.691406 3.613281 95.554688 3.746094 95.179688 3.796875 C 92.644531 4.152344 87.777344 5.507812 86.542969 6.199219 C 85.445312 6.816406 82.816406 8.957031 82.480469 9.503906 C 82.023438 10.25 81.320312 12.890625 81.132812 14.546875 C 81.023438 15.5 81.074219 17.0625 81.21875 17.207031 C 81.277344 17.265625 81.664062 17.261719 82.425781 17.195312 C 83.578125 17.097656 84.1875 16.957031 88.1875 15.867188 C 91.742188 14.898438 93.214844 14.714844 94.71875 15.0625 C 95.390625 15.214844 95.917969 15.265625 97.367188 15.304688 L 99.175781 15.351562 L 100.042969 15.773438 C 100.582031 16.035156 100.972656 16.285156 101.078125 16.429688 C 101.589844 17.152344 101.777344 18.640625 101.539062 20.046875 C 101.265625 21.648438 101.230469 21.828125 101.070312 22.324219 C 100.777344 23.21875 99.457031 25.46875 98.265625 27.101562 C 97.65625 27.933594 95.472656 30.183594 92.207031 33.335938 C 89.101562 36.335938 88.453125 36.875 87.234375 37.453125 C 86.570312 37.769531 83.742188 38.679688 82.613281 38.9375 C 82.292969 39.011719 81.902344 39.128906 81.742188 39.195312 C 81.417969 39.332031 78.789062 39.351562 77.933594 39.226562 Z M 89.691406 32.476562 C 91.152344 31.625 91.070312 31.699219 91.386719 30.882812 C 91.542969 30.480469 91.648438 30.125 91.621094 30.097656 C 91.554688 30.03125 91.089844 30.449219 89.777344 31.75 C 88.367188 33.152344 88.355469 33.25 89.691406 32.476562 Z M 96.550781 24.246094 C 96.863281 23.980469 97.136719 23.683594 97.164062 23.582031 C 97.265625 23.175781 96.613281 21.203125 96.402344 21.273438 C 96.355469 21.289062 96.285156 21.550781 96.25 21.847656 C 96.210938 22.148438 96.105469 22.871094 96.015625 23.453125 C 95.832031 24.644531 95.824219 24.726562 95.917969 24.726562 C 95.953125 24.726562 96.238281 24.507812 96.550781 24.246094 Z M 78.175781 15.203125 C 78.417969 14.140625 78.484375 13.699219 78.394531 13.699219 C 78.355469 13.699219 78.222656 13.863281 78.101562 14.058594 C 77.570312 14.921875 77.488281 15.242188 77.6875 15.730469 C 77.867188 16.164062 77.988281 16.035156 78.175781 15.203125 Z M 79.554688 8.628906 C 81.488281 6.65625 81.640625 6.378906 80.382812 7.132812 C 79.179688 7.855469 78.613281 8.339844 78.402344 8.820312 C 78.15625 9.386719 77.933594 10.136719 78.015625 10.136719 C 78.050781 10.136719 78.742188 9.457031 79.554688 8.628906 Z M 79.554688 8.628906 "/>
</g>
</svg>
