<?xml version="1.0" encoding="UTF-8" standalone="no"?>
<svg
   data-v-423bf9ae=""
   viewBox="0 0 146.62335 59.899982"
   class="font"
   version="1.1"
   id="svg5"
   xml:space="preserve"
   width="146.62335"
   height="59.899982"
   sodipodi:docname="isolated-OGS-black.svg"
   inkscape:version="1.2.1 (9c6d41e410, 2022-07-14)"
   xmlns:inkscape="http://www.inkscape.org/namespaces/inkscape"
   xmlns:sodipodi="http://sodipodi.sourceforge.net/DTD/sodipodi-0.dtd"
   xmlns="http://www.w3.org/2000/svg"
   xmlns:svg="http://www.w3.org/2000/svg"><sodipodi:namedview
     id="namedview2473"
     pagecolor="#ffffff"
     bordercolor="#111111"
     borderopacity="1"
     inkscape:showpageshadow="0"
     inkscape:pageopacity="0"
     inkscape:pagecheckerboard="1"
     inkscape:deskcolor="#d1d1d1"
     showgrid="false"
     inkscape:zoom="8.2524372"
     inkscape:cx="61.254632"
     inkscape:cy="29.930552"
     inkscape:window-width="1920"
     inkscape:window-height="1017"
     inkscape:window-x="-8"
     inkscape:window-y="1072"
     inkscape:window-maximized="1"
     inkscape:current-layer="svg5" /><defs
     id="defs9" /><!----><!----><!----><g
     data-v-423bf9ae=""
     id="c665296c-fc81-4843-a736-8fd45cde5584"
     fill="#000000"
     transform="matrix(5.4699609,0,0,5.4699609,-0.99721639,-3.3913762)"><path
       style="fill:#000000;stroke-width:0.022153"
       d="M 3.060706,10.131537 C 2.6343318,10.074215 2.1861807,9.9028536 1.8369104,9.6635926 1.5793273,9.4871396 1.2267966,9.1238671 1.0368839,8.8391896 0.61935585,8.2133186 0.37566581,7.5309815 0.23084045,6.5822519 0.18993895,6.3143122 0.18268125,6.1710784 0.18232317,5.6247424 0.18195451,5.0622639 0.18792961,4.9477553 0.23033008,4.7047235 0.39392347,3.7670366 0.65497553,3.1917153 1.2169569,2.53034 1.58027,2.10277 2.1903747,1.4747979 2.358409,1.3554596 2.7150377,1.1021809 3.0644831,0.92563243 3.4916048,0.78294103 c 0.3646677,-0.121827 0.6137909,-0.1620478 1.0090495,-0.1629108 0.3664006,-8e-4 0.4404801,0.013559 0.6941594,0.1345499 0.1504405,0.071752 0.1654026,0.074858 0.2018268,0.041894 0.036307,-0.032858 0.051962,-0.031084 0.203039,0.023009 0.474877,0.1700283 1.0230579,0.49880467 1.3051685,0.78278667 0.2763546,0.278188 0.5011867,0.655842 0.6538425,1.0982698 0.05112,0.1481554 0.063944,0.2325119 0.078182,0.5142943 0.00937,0.1853888 0.022049,0.3451873 0.02818,0.3551081 0.024841,0.040194 0.3010515,1.2252206 0.3231173,1.3862735 0.033218,0.2424463 0.028879,0.6931481 -0.00926,0.9613946 C 7.8108543,7.0997792 7.1362957,8.2568255 6.1178268,9.1098674 5.5625903,9.5749176 4.8100693,9.9485506 4.1462053,10.088792 3.8910208,10.142699 3.3130264,10.16546 3.060706,10.131537 Z M 4.6557256,9.222208 C 5.6863373,9.0959101 6.5718493,8.3546658 6.9128289,7.3328324 6.9782326,7.1368327 7.0678918,6.7224939 7.0489903,6.7035928 7.0422316,6.6968341 7.0199368,6.7354408 6.9994457,6.7893854 6.9022291,7.0453168 6.7330689,7.3231433 6.5439281,7.5375218 6.3100487,7.8026078 5.5445277,8.5232217 5.4008843,8.6135121 5.1733183,8.7565541 4.6123368,8.9848811 4.1975283,9.1032946 3.8440061,9.2042127 3.8361872,9.208394 3.968981,9.2255201 c 0.1851037,0.023873 0.4763782,0.022468 0.6867446,-0.00331 z M 4.0640045,8.4036706 C 4.7673084,8.3270605 5.5329651,8.0498765 5.8565153,7.7547433 6.0859718,7.54544 6.2857207,7.0213733 6.3514115,6.4563214 6.38556,6.1625866 6.3667498,5.3522477 6.3187369,5.0487629 6.1209208,3.7983666 5.4805227,2.5215402 4.9139788,2.2479553 4.7656514,2.1763279 4.7542791,2.1741032 4.715564,2.20914 4.6768522,2.2441737 4.6670803,2.2422913 4.5453231,2.1763448 4.3194888,2.0540276 4.055824,2.0625608 3.6034557,2.2068269 3.2610026,2.3160396 3.1044198,2.3945273 3.0425855,2.4879651 3.0101294,2.5370099 2.928477,2.604827 2.8386951,2.6573082 2.4779864,2.8681572 2.2684692,3.2485952 2.208079,3.8023707 2.0946855,4.8421825 2.1577014,5.9483255 2.3728766,6.6951277 2.6034638,7.495421 3.0001032,8.0784871 3.4893717,8.3363935 3.678806,8.4362492 3.7203108,8.4411085 4.0640045,8.4036706 Z M 1.5557812,3.1107824 C 2.0341155,2.4665059 2.6760076,1.9769295 3.5591496,1.5827967 3.7551705,1.4953155 3.7284696,1.4765484 3.4622713,1.514705 3.1088308,1.5653669 2.6605503,1.7465352 2.2846927,1.9906121 1.9520083,2.206653 1.7333314,2.4331463 1.5906489,2.7094636 1.5009985,2.8830797 1.3579064,3.2480064 1.3335539,3.3651312 l -0.013818,0.066459 0.039746,-0.054971 C 1.3813415,3.346385 1.4696764,3.2267585 1.5557812,3.1107824 Z"
       id="path285" /><path
       style="fill:#000000;stroke-width:0.022153"
       d="m 15.951619,11.499274 c -0.02389,-0.03929 -0.05573,-0.126517 -0.07076,-0.193839 -0.05093,-0.228216 -0.03258,-1.049974 0.05112,-2.2894371 0.01302,-0.1927668 0.01796,-0.3561877 0.01099,-0.3631583 -0.007,-0.00697 -0.09046,0.0475 -0.185527,0.1210447 -0.234831,0.1816644 -0.616745,0.4281457 -0.846169,0.5461052 -0.104148,0.053548 -0.399236,0.1873827 -0.65575,0.2974094 -0.910893,0.3907101 -1.32198,0.4991171 -1.89291,0.4991781 -0.188855,2e-5 -0.403186,-0.01239 -0.476291,-0.02758 -0.0731,-0.01519 -0.287435,-0.1007067 -0.47629,-0.1900331 C 11.221178,9.8096365 10.88722,9.6747383 10.667905,9.5991886 9.9678862,9.3580464 9.7822512,9.2578408 9.5194423,8.9792496 9.3506286,8.800298 9.2217034,8.5549859 9.0981504,8.1776366 8.8641056,7.4628291 8.7690448,6.7853625 8.8163625,6.1694299 8.9241097,4.7668876 9.5955551,3.4008616 10.742704,2.2503701 c 0.730051,-0.7321772 1.383166,-1.173776 2.085124,-1.40984034 0.381396,-0.12826163 0.629203,-0.17161605 1.05227,-0.18409787 0.381867,-0.0112663 0.446366,-0.005096 1.109453,0.10613967 0.134111,0.0224978 0.172107,0.0211246 0.261881,-0.009465 l 0.10501,-0.0357804 -0.01536,0.0711923 c -0.02449,0.11347501 -0.0846,0.21561284 -0.240665,0.40890754 -0.160457,0.1987363 -0.364225,0.3576653 -0.530182,0.4135159 -0.05906,0.019875 -0.181708,0.039673 -0.272558,0.043995 -0.131018,0.00623 -0.175558,0.017608 -0.215357,0.054997 -0.0436,0.040963 -0.06739,0.045411 -0.18158,0.033958 -0.245132,-0.024587 -0.553195,0.074453 -0.988846,0.3179079 -0.127926,0.071489 -0.182915,0.117129 -0.219457,0.1821467 -0.04165,0.074111 -0.07429,0.097048 -0.223935,0.1573691 -0.142178,0.057312 -0.208576,0.1020347 -0.352499,0.2374273 -0.242119,0.2277685 -0.339427,0.4268504 -0.450199,0.9210618 -0.07267,0.3242209 -0.09623,0.5163323 -0.122572,0.9994663 -0.06087,1.1165305 0.1337,2.1396533 0.575077,3.0238914 0.163081,0.3267115 0.328899,0.5683472 0.548046,0.7986328 l 0.188665,0.1982544 h 0.165599 0.165599 l -0.05735,0.068159 c -0.03154,0.037487 -0.05735,0.075779 -0.05735,0.085091 0,0.030508 0.20707,0.1305089 0.51053,0.2465513 0.163931,0.062687 0.31446,0.1188928 0.33451,0.1249021 0.102469,0.030714 0.604568,-0.1550091 1.290812,-0.4774632 0.414026,-0.194543 0.480362,-0.2333351 0.623756,-0.3647594 0.157749,-0.1445824 0.160882,-0.1495938 0.185594,-0.2969129 0.03253,-0.193927 0.116855,-0.8276158 0.201235,-1.5122613 0.03679,-0.2985123 0.09567,-0.7471115 0.130851,-0.9968871 0.08696,-0.6174481 0.09194,-0.6645916 0.07029,-0.6645916 -0.01036,0 -0.229338,0.08957 -0.486618,0.1990435 -0.491535,0.2091508 -0.761103,0.3393991 -1.39886,0.6758911 -0.452959,0.2389892 -0.958834,0.4764015 -1.015111,0.4764015 -0.07421,0 -0.09138,-0.042024 -0.05699,-0.139484 0.05742,-0.1627585 0.321769,-0.4716893 0.54851,-0.6410246 l 0.152071,-0.1135711 -0.09641,-0.028467 c -0.164086,-0.048449 -0.19073,-0.1369372 -0.0991,-0.3291002 0.06471,-0.135709 0.301543,-0.4316687 0.464876,-0.5809454 0.275397,-0.2516975 0.798093,-0.5465283 1.258437,-0.7098318 0.430633,-0.1527638 0.995651,-0.2767683 1.478237,-0.324429 0.09193,-0.00908 0.114041,-0.00576 0.09415,0.01413 -0.03656,0.036555 -0.03244,0.054587 0.01531,0.067073 0.02656,0.00695 0.04669,0.039495 0.05639,0.091196 0.0085,0.045072 0.02817,0.080395 0.04486,0.080395 0.103493,0 0.414496,-0.079761 0.591104,-0.1515965 0.355915,-0.1447692 1.090796,-0.3800767 1.187007,-0.3800767 0.01563,0 -0.07866,0.1376713 -0.209535,0.3059367 -0.130872,0.168265 -0.285291,0.3676425 -0.343153,0.4430609 -0.05786,0.075418 -0.118359,0.1371244 -0.134436,0.1371244 -0.09909,0 -0.265099,0.079746 -0.413875,0.198817 -0.09138,0.073135 -0.228454,0.1595049 -0.304605,0.1919322 l -0.138457,0.058959 1.33e-4,0.1794393 c 8.9e-5,0.1361088 -0.0167,0.2371552 -0.06958,0.4184516 -0.06628,0.2272491 -0.07449,0.2424478 -0.16691,0.3088157 -0.05346,0.038392 -0.101096,0.090338 -0.105859,0.1154365 -0.04597,0.2422408 -0.108325,1.2157811 -0.144807,2.2609381 -0.05022,1.4387969 -0.09086,2.3335881 -0.113192,2.4922173 -0.04654,0.33059 -0.130547,0.592837 -0.283871,0.886122 -0.07807,0.14934 -0.364958,0.421702 -0.532238,0.505293 -0.07781,0.03888 -0.15497,0.07069 -0.17148,0.07069 -0.01651,0 -0.04957,-0.03215 -0.07346,-0.07144 z M 10.049402,7.3369041 C 9.9401832,6.792689 9.9162882,6.559219 9.9158972,6.0324485 c -3.29e-4,-0.4328236 0.0063,-0.5318497 0.0506,-0.7521935 0.08616,-0.4289509 0.2508938,-0.8851624 0.4299478,-1.1906725 0.04324,-0.073774 0.110457,-0.2378408 0.149376,-0.3645919 l 0.07076,-0.2304569 0.191659,-0.1322229 c 0.251697,-0.1736429 0.46738,-0.3807367 0.613182,-0.5887638 0.311295,-0.4441486 0.598404,-0.6989951 1.067283,-0.9473492 0.291769,-0.1545432 0.4223,-0.2374476 0.403184,-0.2560747 -0.01679,-0.016357 -0.373362,0.05045 -0.57754,0.1082069 -0.270705,0.076575 -0.690919,0.2837738 -0.926468,0.4568216 -0.3876,0.2847539 -0.810618,0.777899 -1.0724,1.2501839 -0.267177,0.482016 -0.4911828,1.1644659 -0.5757103,1.7539439 -0.08221,0.5733156 -0.021131,1.3997301 0.1450725,1.9628616 0.06276,0.2126556 0.1940188,0.5347016 0.2110038,0.5177163 0.0047,-0.00474 -0.01616,-0.1320668 -0.04644,-0.2829532 z"
       id="path356" /><path
       style="fill:#000000;stroke-width:0.121176"
       d="m 112.31379,56.035334 c -1.55957,-0.229072 -5.52169,-1.380894 -6.8298,-1.98548 -0.46653,-0.215622 -0.95164,-0.508971 -1.07803,-0.651885 -0.22958,-0.259595 -0.22873,-0.260899 0.87853,-1.3483 0.75828,-0.744689 1.10783,-1.175601 1.10676,-1.364386 -8.5e-4,-0.151763 -0.13019,-0.548579 -0.28742,-0.881814 l -0.28586,-0.605881 0.49733,-0.967264 c 0.84623,-1.64583 2.94171,-3.464515 3.97782,-3.452393 0.15415,0.0018 0.48104,0.189975 0.72641,0.418161 0.41868,0.389357 0.43753,0.437683 0.30626,0.785448 -0.17719,0.46944 0.0881,1.011067 0.83021,1.695147 0.43114,0.397411 0.61955,0.482286 1.22067,0.549898 0.39096,0.04397 1.31066,0.154617 2.04378,0.245876 2.18216,0.271636 4.23933,0.330578 6.29582,0.180386 l 1.93346,-0.141207 3.27712,-3.167061 c 3.87576,-3.745607 4.8522,-4.669308 5.81089,-5.497057 l 0.71613,-0.618319 0.2253,-1.195801 c 0.30483,-1.617923 0.41935,-4.490887 0.22739,-5.704651 -0.19134,-1.209835 -0.70823,-3.436028 -0.85108,-3.66553 -0.0713,-0.114598 -0.27243,-0.166474 -0.57194,-0.147537 -0.67992,0.04299 -3.60253,0.7815 -6.38373,1.613097 -4.42796,1.323992 -7.65458,2.091321 -10.13407,2.410002 -1.40589,0.180695 -4.45771,0.06317 -5.37194,-0.206866 -1.09603,-0.323736 -2.89423,-1.279574 -3.4918,-1.856072 -0.53618,-0.51727 -0.56986,-0.588885 -0.65546,-1.393527 -0.19434,-1.826994 -0.12331,-3.317403 0.21961,-4.607513 0.17756,-0.668016 0.38073,-1.840397 0.4515,-2.605291 0.18668,-2.01782 0.67672,-4.698189 1.03344,-5.652565 0.71424,-1.910924 2.15604,-3.946979 4.19487,-5.923838 1.89668,-1.8390276 3.50098,-2.8961136 7.98213,-5.2594816 1.29962,-0.6854205 3.63481,-1.9282474 5.18931,-2.7618376 4.23357,-2.27021345 5.08476,-2.47074254 8.14009,-1.91770515 1.71248,0.30997246 1.83988,0.31593859 5.02202,0.23517739 l 3.26497,-0.0828633 -1.82876,2.10973796 c -2.20841,2.5477323 -2.40332,2.7336659 -2.94412,2.8086281 -3.65241,0.506268 -10.67034,2.4418264 -12.44814,3.4332173 -1.58038,0.8812991 -5.36928,3.9367799 -5.85371,4.7206019 -0.65721,1.063381 -1.67518,4.835172 -1.94407,7.203154 -0.1545,1.360633 -0.0808,3.59352 0.12547,3.799761 0.0841,0.08409 0.64085,0.07926 1.73999,-0.01507 1.66103,-0.14256 2.53548,-0.342685 8.30386,-1.90042 5.1218,-1.383126 7.24134,-1.64202 9.41013,-1.149405 0.97049,0.220435 1.7305,0.289282 3.81705,0.345774 l 2.60529,0.07054 1.25216,0.601364 c 0.77616,0.372755 1.34232,0.727979 1.48933,0.934429 0.73746,1.035675 1.01126,3.158892 0.66663,5.169657 -0.39204,2.287466 -0.44523,2.542602 -0.67784,3.251142 -0.42017,1.279915 -2.32494,4.496492 -4.04236,6.826329 -0.87574,1.188018 -4.02471,4.400799 -8.73049,8.907411 -4.47355,4.284199 -5.41075,5.053315 -7.16446,5.879501 -0.95992,0.452226 -5.03579,1.751744 -6.65739,2.12259 -0.46251,0.105773 -1.02809,0.270518 -1.25686,0.366101 -0.46706,0.195152 -4.25643,0.225436 -5.4924,0.04389 z m 16.94677,-9.642658 c 2.10346,-1.213956 1.98967,-1.108039 2.44271,-2.27358 0.22479,-0.578332 0.37619,-1.084039 0.33643,-1.123795 -0.0944,-0.09442 -0.76371,0.501454 -2.65368,2.362591 -2.031,2.000021 -2.04854,2.14463 -0.12546,1.034784 z m 9.88664,-11.75638 c 0.44932,-0.37763 0.84653,-0.804482 0.88269,-0.948559 0.14543,-0.579446 -0.791,-3.395022 -1.09594,-3.295195 -0.0696,0.02277 -0.16994,0.391637 -0.22308,0.819703 -0.0531,0.428067 -0.20322,1.459921 -0.33354,2.293009 -0.26583,1.699287 -0.27505,1.817644 -0.1417,1.817644 0.052,0 0.46225,-0.30897 0.91157,-0.686602 z m -26.47933,-12.91544 c 0.34903,-1.522599 0.44084,-2.150921 0.31425,-2.150663 -0.0585,1.19e-4 -0.25018,0.231869 -0.42593,0.515 -0.7658,1.233627 -0.8797,1.691843 -0.59277,2.384567 0.25859,0.624281 0.4319,0.440031 0.70445,-0.748904 z m 1.9847,-9.391165 c 2.78588,-2.8187292 3.00809,-3.2163042 1.19476,-2.137656 -1.73456,1.031786 -2.55049,1.720519 -2.85559,2.410404 -0.35618,0.805387 -0.6741,1.878132 -0.55661,1.878132 0.0504,0 1.04824,-0.967896 2.21744,-2.15088 z"
       id="path431"
       transform="matrix(0.18281666,0,0,0.18281666,0.18230778,0.62000007)" /></g><!----><!----></svg>
